# xmcd
#
# Track frame offsets:
#	150
#	14458
#	26115
#	38078
#	49075
#	58445
#	73615
#	85035
#	99863
#	114205
#	128155
#	138095
#	150370
#	161928
#	174838
#	185173
#
# Disc length: 2660 seconds
#
# Revision: 1
# Processed by: cddbd v1.5.2PL0 Copyright (c) Steve Scherf et al.
# Submitted via: audiograbber 1.83.01
#
DISCID=cd0a6210
DTITLE=Ernest Tubb and Friends - It's country time - CD2-3
DYEAR=1993
DGENRE=Country
TTITLE0=Tomorrow never comes (& B.J.Thomas)
TTITLE1=Letters have no arms (& Kris Kristofferson)
TTITLE2=Waltz across Texas (& Willie Nelson, Charlie Daniels)
TTITLE3=Ill step aside (J.Greene, J.Selly, K.Edward)
TTITLE4=Have you ever been lonely (& Mel Titllis)
TTITLE5=Im with a crowd but so alone (& Roy Clark)
TTITLE6=Answer the phone (& Loretta Lynn)
TTITLE7=Rainbow at midnight (& Marty Robbins)
TTITLE8=Filipino Baby (& Georges Jones)
TTITLE9=Seamans blues (& Merle Haggard)
TTITLE10=Half my hearts in Texas
TTITLE11=Yesterdays Winner is loser today (& Gene Watson)
TTITLE12=Im gonna make my home (& David Rogers)
TTITLE13=Papers and Pens
TTITLE14=Set up two glasses Joe (& f. Hisky, S. Crum)
TTITLE15=Its been so long Darling (& Conway Twitty)
EXTD=
EXTT0=
EXTT1=
EXTT2=
EXTT3=
EXTT4=
EXTT5=
EXTT6=
EXTT7=
EXTT8=
EXTT9=
EXTT10=
EXTT11=
EXTT12=
EXTT13=
EXTT14=
EXTT15=
PLAYORDER=
